<svg width="70" height="60" viewBox="0 0 70 60" fill="none" xmlns="http://www.w3.org/2000/svg">
<g clip-path="url(#clip0)">
<path d="M53.9583 60H16.0417C12.0196 60 8.75 57.195 8.75 53.75V6.25C8.75 2.805 12.0196 0 16.0417 0H53.9583C57.9804 0 61.25 2.805 61.25 6.25V53.75C61.25 57.195 57.9804 60 53.9583 60ZM16.0417 2.5C13.6296 2.5 11.6667 4.1825 11.6667 6.25V53.75C11.6667 55.8175 13.6296 57.5 16.0417 57.5H53.9583C56.3704 57.5 58.3333 55.8175 58.3333 53.75V6.25C58.3333 4.1825 56.3704 2.5 53.9583 2.5H16.0417Z" fill="white"/>
<path d="M51.0417 42.5H18.9583C18.1533 42.5 17.5 41.94 17.5 41.25C17.5 40.56 18.1533 40 18.9583 40H51.0417C51.8467 40 52.5 40.56 52.5 41.25C52.5 41.94 51.8467 42.5 51.0417 42.5Z" fill="white"/>
<path d="M51.0417 32.5H18.9583C18.1533 32.5 17.5 31.94 17.5 31.25C17.5 30.56 18.1533 30 18.9583 30H51.0417C51.8467 30 52.5 30.56 52.5 31.25C52.5 31.94 51.8467 32.5 51.0417 32.5Z" fill="white"/>
<path d="M51.0417 52.5H18.9583C18.1533 52.5 17.5 51.94 17.5 51.25C17.5 50.56 18.1533 50 18.9583 50H51.0417C51.8467 50 52.5 50.56 52.5 51.25C52.5 51.94 51.8467 52.5 51.0417 52.5Z" fill="white"/>
<path d="M30.625 22.5H24.7917C22.3796 22.5 20.4167 20.8175 20.4167 18.75V11.25C20.4167 9.1825 22.3796 7.5 24.7917 7.5H30.625C31.43 7.5 32.0833 8.06 32.0833 8.75C32.0833 9.44 31.43 10 30.625 10H24.7917C23.9896 10 23.3333 10.56 23.3333 11.25V18.75C23.3333 19.44 23.9896 20 24.7917 20H30.625C31.43 20 32.0833 20.56 32.0833 21.25C32.0833 21.94 31.43 22.5 30.625 22.5Z" fill="white"/>
<path d="M43.75 22.5C43.1054 22.5 42.5396 22.1375 42.3529 21.61L37.978 9.11003C37.7446 8.45003 38.1821 7.75253 38.955 7.55253C39.7221 7.36003 40.5388 7.72753 40.7692 8.39003L43.75 16.9L46.7279 8.39253C46.9584 7.73003 47.775 7.36253 48.5421 7.55503C49.315 7.75503 49.7525 8.45003 49.5192 9.11253L45.1442 21.6125C44.9604 22.1375 44.3946 22.5 43.75 22.5V22.5Z" fill="white"/>
</g>
<defs>
<clipPath id="clip0">
<rect width="70" height="60" fill="white"/>
</clipPath>
</defs>
</svg>
