<svg width="60" height="60" viewBox="0 0 60 60" fill="none" xmlns="http://www.w3.org/2000/svg">
<g clip-path="url(#clip0)">
<path d="M56.923 9.99994H3.07699C1.38457 9.99994 0 11.3845 0 13.0768V46.923C0 48.6152 1.38457 50 3.07699 50H56.9231C58.6153 50 60.0001 48.6154 60.0001 46.923V13.0768C60 11.3845 58.6154 9.99994 56.923 9.99994ZM55.7684 12.3075L31.77 30.3077C31.3385 30.6361 30.6762 30.8415 29.9999 30.8385C29.3237 30.8415 28.6615 30.6361 28.2299 30.3077L4.23152 12.3075H55.7684ZM42.9492 31.4954L56.0262 47.6494C56.0393 47.6655 56.0554 47.6778 56.0693 47.6925H3.9307C3.94453 47.6771 3.9607 47.6655 3.97383 47.6494L17.0508 31.4954C17.4514 31.0001 17.3755 30.2738 16.8792 29.8722C16.3839 29.4716 15.6577 29.5475 15.2569 30.043L2.30766 46.0392V13.7498L26.846 32.1536C27.7684 32.8406 28.8906 33.1429 29.9998 33.146C31.1074 33.1436 32.2305 32.8413 33.1535 32.1536L57.6919 13.7498V46.039L44.743 30.043C44.3422 29.5476 43.6153 29.4715 43.1207 29.8722C42.6245 30.2729 42.5483 31.0001 42.9492 31.4954Z" fill="white"/>
</g>
<defs>
<clipPath id="clip0">
<rect width="60" height="60" fill="white"/>
</clipPath>
</defs>
</svg>
